<svg width="282" height="282" viewBox="0 0 282 282" fill="none" xmlns="http://www.w3.org/2000/svg">
<g clip-path="url(#clip0_254_2743)">
<path d="M212.236 69.78L213.03 61.4248C210.807 61.2136 208.592 61.8965 206.875 63.3224C205.157 64.7483 204.078 66.7997 203.877 69.023L212.236 69.78ZM238.286 114.934L230.175 117.093L230.179 117.106L238.286 114.934ZM164.883 51.8051C169.359 53.0101 173.965 50.3584 175.17 45.8825C176.374 41.4066 173.723 36.8014 169.247 35.5965L164.883 51.8051ZM199.788 114.176C199.369 118.793 202.773 122.874 207.389 123.292C212.006 123.71 216.087 120.307 216.505 115.691L199.788 114.176ZM254.352 82.2122C258.967 82.6506 263.063 79.2653 263.502 74.6508C263.94 70.0363 260.555 65.9402 255.94 65.5017L254.352 82.2122ZM206.306 75.7199C217.772 87.165 226.007 101.439 230.175 117.093L246.396 112.774C241.465 94.2585 231.726 77.3766 218.165 63.8401L206.306 75.7199ZM230.179 117.106C243.376 166.358 214.149 216.979 164.898 230.176L169.242 246.39C227.448 230.793 261.989 170.968 246.392 112.761L230.179 117.106ZM164.898 230.176C115.646 243.373 65.0244 214.147 51.8274 164.895L35.6136 169.239C51.21 227.446 111.036 261.986 169.242 246.39L164.898 230.176ZM51.8274 164.895C38.6304 115.643 67.8566 65.0216 117.108 51.8246L112.764 35.6109C54.5575 51.2073 20.0172 111.033 35.6136 169.239L51.8274 164.895ZM117.108 51.8246C133.362 47.4696 149.754 47.7323 164.883 51.8051L169.247 35.5965C151.338 30.7754 131.941 30.4724 112.764 35.6109L117.108 51.8246ZM203.877 69.023L199.788 114.176L216.505 115.691L220.594 70.537L203.877 69.023ZM211.442 78.1352L254.352 82.2122L255.94 65.5017L213.03 61.4248L211.442 78.1352Z" fill="#BDD3E5"/>
<path d="M162.215 113.11C156.601 107.649 146.723 103.856 137.644 103.614M137.644 103.614C126.843 103.332 117.172 108.092 117.172 121.075C117.172 144.982 162.215 133.029 162.215 156.935C162.215 170.575 150.225 176.434 137.644 175.991M137.644 103.614V89.2036M113.073 164.906C118.355 171.755 128.168 175.657 137.644 175.991M137.644 175.991V192.795" stroke="#BDD3E5" stroke-width="16.7857" stroke-linecap="round" stroke-linejoin="round"/>
</g>
<defs>
<clipPath id="clip0_254_2743">
<rect width="248.429" height="241.714" fill="white" transform="translate(20.1445 20.1428)"/>
</clipPath>
</defs>
</svg>
