<svg width="54" height="54" viewBox="0 0 54 54" fill="none" xmlns="http://www.w3.org/2000/svg">
<path fill-rule="evenodd" clip-rule="evenodd" d="M15.5 9.5H10C9.44772 9.5 9 9.94772 9 10.5V16C9 16.8284 8.32843 17.5 7.5 17.5C6.67157 17.5 6 16.8284 6 16V9C6 7.61929 7.11929 6.5 8.5 6.5H15.5C16.3284 6.5 17 7.17157 17 8C17 8.82843 16.3284 9.5 15.5 9.5ZM9 39L9 44.5C9 45.0523 9.44772 45.5 10 45.5H15.5C16.3284 45.5 17 46.1716 17 47C17 47.8284 16.3284 48.5 15.5 48.5H8.5C7.11929 48.5 6 47.3807 6 46V39C6 38.1716 6.67157 37.5 7.5 37.5C8.32843 37.5 9 38.1716 9 39ZM44 45.5C44.5523 45.5 45 45.0523 45 44.5V39C45 38.1716 45.6716 37.5 46.5 37.5C47.3284 37.5 48 38.1716 48 39V46C48 47.3807 46.8807 48.5 45.5 48.5H38.5C37.6716 48.5 37 47.8284 37 47C37 46.1716 37.6716 45.5 38.5 45.5H44ZM38.5 9.5L44 9.5C44.5523 9.5 45 9.94772 45 10.5V16C45 16.8284 45.6716 17.5 46.5 17.5C47.3284 17.5 48 16.8284 48 16V9C48 7.61929 46.8807 6.5 45.5 6.5H38.5C37.6716 6.5 37 7.17157 37 8C37 8.82843 37.6716 9.5 38.5 9.5Z" fill="black"/>
<circle cx="27" cy="27" r="12.5" stroke="black" stroke-width="3"/>
<path d="M27 20V27L30.5 30" stroke="black" stroke-width="3" stroke-linecap="round" stroke-linejoin="round"/>
</svg>
