<svg width="54" height="54" viewBox="0 0 54 54" fill="none" xmlns="http://www.w3.org/2000/svg">
<path d="M3.48389 34.747C3.48389 30.9495 6.5624 27.871 10.3599 27.871H12.2853C16.0828 27.871 19.1613 30.9495 19.1613 34.747C19.1613 35.7597 18.3404 36.5806 17.3277 36.5806H5.3175C4.30482 36.5806 3.48389 35.7597 3.48389 34.747Z" fill="black"/>
<ellipse cx="11.3226" cy="21.7741" rx="4.35484" ry="4.35484" fill="black"/>
<path d="M19.1613 43.4567C19.1613 39.6592 22.2398 36.5807 26.0373 36.5807H27.9626C31.7602 36.5807 34.8387 39.6592 34.8387 43.4567C34.8387 44.4694 34.0177 45.2904 33.0051 45.2904H20.9949C19.9822 45.2904 19.1613 44.4694 19.1613 43.4567Z" fill="black"/>
<ellipse cx="27" cy="30.4839" rx="4.35484" ry="4.35484" fill="black"/>
<path d="M34.8387 34.747C34.8387 30.9495 37.9173 27.871 41.7148 27.871H43.6401C47.4377 27.871 50.5162 30.9495 50.5162 34.747C50.5162 35.7597 49.6952 36.5806 48.6826 36.5806H36.6724C35.6597 36.5806 34.8387 35.7597 34.8387 34.747Z" fill="black"/>
<ellipse cx="42.6775" cy="21.7741" rx="4.35484" ry="4.35484" fill="black"/>
<ellipse cx="27" cy="16.5484" rx="4.35484" ry="4.35484" fill="black"/>
</svg>
