<svg width="54" height="54" viewBox="0 0 54 54" fill="none" xmlns="http://www.w3.org/2000/svg">
<path d="M27.1424 46.57C32.2571 46.57 37.1623 44.5382 40.779 40.9216C44.3956 37.3049 46.4274 32.3997 46.4274 27.285C46.4274 22.1703 44.3956 17.2651 40.779 13.6484C37.1623 10.0318 32.2571 8 27.1424 8C22.0277 8 17.1225 10.0318 13.5059 13.6484C9.88923 17.2651 7.85742 22.1703 7.85742 27.285C7.85742 32.3997 9.88923 37.3049 13.5059 40.9216C17.1225 44.5382 22.0277 46.57 27.1424 46.57Z" stroke="black" stroke-width="2.5" stroke-linecap="round" stroke-linejoin="round"/>
<path d="M17.8616 29.7693C19.2462 34.7539 24.7847 37.8001 29.7693 36.4154C32.8154 35.3077 35.3078 32.8154 36.1385 29.7693M20.9077 22.7077C20.7241 22.7077 20.548 22.6348 20.4182 22.505C20.2884 22.3751 20.2154 22.199 20.2154 22.0154C20.2154 21.8318 20.2884 21.6557 20.4182 21.5259C20.548 21.3961 20.7241 21.3231 20.9077 21.3231C21.0913 21.3231 21.2674 21.3961 21.3973 21.5259C21.5271 21.6557 21.6 21.8318 21.6 22.0154C21.6 22.199 21.5271 22.3751 21.3973 22.505C21.2674 22.6348 21.0913 22.7077 20.9077 22.7077ZM33.0924 22.7077C32.9088 22.7077 32.7327 22.6348 32.6028 22.505C32.473 22.3751 32.4001 22.199 32.4001 22.0154C32.4001 21.8318 32.473 21.6557 32.6028 21.5259C32.7327 21.3961 32.9088 21.3231 33.0924 21.3231C33.276 21.3231 33.4521 21.3961 33.5819 21.5259C33.7117 21.6557 33.7847 21.8318 33.7847 22.0154C33.7847 22.199 33.7117 22.3751 33.5819 22.505C33.4521 22.6348 33.276 22.7077 33.0924 22.7077Z" stroke="black" stroke-width="2.5" stroke-linecap="round" stroke-linejoin="round"/>
<ellipse cx="33.4285" cy="21.8571" rx="1.28572" ry="1.28571" fill="black"/>
<ellipse cx="20.5714" cy="21.8571" rx="1.28572" ry="1.28571" fill="black"/>
</svg>
