<svg width="54" height="54" viewBox="0 0 54 54" fill="none" xmlns="http://www.w3.org/2000/svg">
<path d="M19.8 41.4H14.4C13.9226 41.4 13.4648 41.2104 13.1272 40.8728C12.7896 40.5352 12.6 40.0774 12.6 39.6V34.2C12.6 33.7226 12.4104 33.2648 12.0728 32.9272C11.7352 32.5896 11.2774 32.4 10.8 32.4C10.3226 32.4 9.86477 32.5896 9.52721 32.9272C9.18964 33.2648 9 33.7226 9 34.2V39.6C9 41.0322 9.56893 42.4057 10.5816 43.4184C11.5943 44.4311 12.9678 45 14.4 45H19.8C20.2774 45 20.7352 44.8104 21.0728 44.4728C21.4104 44.1352 21.6 43.6774 21.6 43.2C21.6 42.7226 21.4104 42.2648 21.0728 41.9272C20.7352 41.5896 20.2774 41.4 19.8 41.4ZM10.8 21.6C11.2774 21.6 11.7352 21.4104 12.0728 21.0728C12.4104 20.7352 12.6 20.2774 12.6 19.8V14.4C12.6 13.9226 12.7896 13.4648 13.1272 13.1272C13.4648 12.7896 13.9226 12.6 14.4 12.6H19.8C20.2774 12.6 20.7352 12.4104 21.0728 12.0728C21.4104 11.7352 21.6 11.2774 21.6 10.8C21.6 10.3226 21.4104 9.86477 21.0728 9.52721C20.7352 9.18964 20.2774 9 19.8 9H14.4C12.9678 9 11.5943 9.56893 10.5816 10.5816C9.56893 11.5943 9 12.9678 9 14.4V19.8C9 20.2774 9.18964 20.7352 9.52721 21.0728C9.86477 21.4104 10.3226 21.6 10.8 21.6ZM39.6 9H34.2C33.7226 9 33.2648 9.18964 32.9272 9.52721C32.5897 9.86477 32.4 10.3226 32.4 10.8C32.4 11.2774 32.5897 11.7352 32.9272 12.0728C33.2648 12.4104 33.7226 12.6 34.2 12.6H39.6C40.0774 12.6 40.5352 12.7896 40.8728 13.1272C41.2104 13.4648 41.4 13.9226 41.4 14.4V19.8C41.4 20.2774 41.5897 20.7352 41.9272 21.0728C42.2648 21.4104 42.7226 21.6 43.2 21.6C43.6774 21.6 44.1352 21.4104 44.4728 21.0728C44.8104 20.7352 45 20.2774 45 19.8V14.4C45 12.9678 44.4311 11.5943 43.4184 10.5816C42.4057 9.56893 41.0322 9 39.6 9ZM43.2 32.4C42.7226 32.4 42.2648 32.5896 41.9272 32.9272C41.5897 33.2648 41.4 33.7226 41.4 34.2V39.6C41.4 40.0774 41.2104 40.5352 40.8728 40.8728C40.5352 41.2104 40.0774 41.4 39.6 41.4H34.2C33.7226 41.4 33.2648 41.5896 32.9272 41.9272C32.5897 42.2648 32.4 42.7226 32.4 43.2C32.4 43.6774 32.5897 44.1352 32.9272 44.4728C33.2648 44.8104 33.7226 45 34.2 45H39.6C41.0322 45 42.4057 44.4311 43.4184 43.4184C44.4311 42.4057 45 41.0322 45 39.6V34.2C45 33.7226 44.8104 33.2648 44.4728 32.9272C44.1352 32.5896 43.6774 32.4 43.2 32.4Z" fill="black"/>
<path d="M19.2856 34.0421C19.2856 30.2445 22.3642 27.166 26.1617 27.166H28.087C31.8846 27.166 34.9631 30.2445 34.9631 34.0421C34.9631 35.0548 34.1421 35.8757 33.1295 35.8757H21.1193C20.1066 35.8757 19.2856 35.0548 19.2856 34.0421Z" fill="black"/>
<ellipse cx="27.1244" cy="21.0692" rx="4.35484" ry="4.35484" fill="black"/>
</svg>
