<svg width="49" height="48" viewBox="0 0 49 48" fill="none" xmlns="http://www.w3.org/2000/svg">
<g id="Group">
<path id="Vector" d="M37.6403 10.3622L37.7923 8.76228C37.3667 8.72185 36.9426 8.85261 36.6137 9.12566C36.2848 9.3987 36.0782 9.79152 36.0397 10.2172L37.6403 10.3622ZM42.6285 19.0086L41.0755 19.4222L41.0761 19.4246L42.6285 19.0086ZM28.5728 6.92022C29.4299 7.15095 30.3117 6.64319 30.5425 5.7861C30.7732 4.92901 30.2654 4.04716 29.4084 3.81643L28.5728 6.92022ZM35.2566 18.8637C35.1765 19.7477 35.8282 20.5292 36.7122 20.6092C37.5962 20.6893 38.3777 20.0376 38.4577 19.1536L35.2566 18.8637ZM45.7052 12.7429C46.5888 12.8268 47.3731 12.1785 47.4571 11.2949C47.5411 10.4113 46.8928 9.62693 46.0092 9.54297L45.7052 12.7429ZM36.5048 11.4996C38.7004 13.6913 40.2772 16.4245 41.0755 19.4222L44.1815 18.5951C43.2374 15.0496 41.3724 11.8169 38.7757 9.22478L36.5048 11.4996ZM41.0761 19.4246C43.6032 28.8558 38.0067 38.5493 28.5755 41.0763L29.4074 44.1811C40.5533 41.1946 47.1674 29.7386 44.1809 18.5927L41.0761 19.4246ZM28.5755 41.0763C19.1443 43.6034 9.45084 38.0069 6.92375 28.5757L3.81899 29.4076C6.80553 40.5535 18.2615 47.1676 29.4074 44.1811L28.5755 41.0763ZM6.92375 28.5757C4.39667 19.1445 9.99318 9.45104 19.4244 6.92395L18.5925 3.81919C7.44655 6.80573 0.832447 18.2617 3.81899 29.4076L6.92375 28.5757ZM19.4244 6.92395C22.5367 6.09002 25.6757 6.14031 28.5728 6.92022L29.4084 3.81643C25.9791 2.89325 22.2647 2.83522 18.5925 3.81919L19.4244 6.92395ZM36.0397 10.2172L35.2566 18.8637L38.4577 19.1536L39.2408 10.5072L36.0397 10.2172ZM37.4882 11.9622L45.7052 12.7429L46.0092 9.54297L37.7923 8.76228L37.4882 11.9622Z" fill="black"/>
</g>
</svg>
