<svg width="166" height="166" viewBox="0 0 166 166" fill="none" xmlns="http://www.w3.org/2000/svg">
<g clip-path="url(#clip0_277_2698)">
<path d="M124.879 41.0251L125.346 36.1128C124.039 35.9887 122.737 36.3902 121.727 37.2285C120.718 38.0668 120.083 39.2729 119.965 40.58L124.879 41.0251ZM140.195 67.572L135.426 68.8418L135.428 68.8491L140.195 67.572ZM97.0396 30.4572C99.6711 31.1656 102.379 29.6066 103.087 26.9751C103.795 24.3437 102.236 21.6361 99.605 20.9277L97.0396 30.4572ZM117.561 67.1269C117.315 69.841 119.316 72.2404 122.03 72.4862C124.744 72.7321 127.143 70.7311 127.389 68.0171L117.561 67.1269ZM149.641 48.3343C152.354 48.5921 154.762 46.6017 155.02 43.8888C155.277 41.1758 153.287 38.7676 150.574 38.5098L149.641 48.3343ZM121.393 44.5173C128.134 51.2462 132.975 59.638 135.426 68.8417L144.963 66.3022C142.064 55.4166 136.338 45.4913 128.365 37.5329L121.393 44.5173ZM135.428 68.8491C143.187 97.8055 126.004 127.567 97.0479 135.326L99.6021 144.858C133.823 135.689 154.13 100.516 144.961 66.2949L135.428 68.8491ZM97.0479 135.326C68.0915 143.085 38.3299 125.902 30.5711 96.9455L21.0386 99.4997C30.2081 133.721 65.3811 154.028 99.6021 144.858L97.0479 135.326ZM30.5711 96.9455C22.8122 67.9891 39.9951 38.2275 68.9515 30.4687L66.3973 20.9362C32.1762 30.1057 11.8691 65.2787 21.0386 99.4997L30.5711 96.9455ZM68.9515 30.4687C78.5071 27.9083 88.1448 28.0627 97.0396 30.4572L99.605 20.9277C89.0761 18.0933 77.672 17.9151 66.3973 20.9362L68.9515 30.4687ZM119.965 40.58L117.561 67.1269L127.389 68.0171L129.793 41.4702L119.965 40.58ZM124.413 45.9373L149.641 48.3343L150.574 38.5098L125.346 36.1128L124.413 45.9373Z" fill="#BDD3E5"/>
<path d="M95.4711 66.4987C92.1709 63.2877 86.3634 61.0579 81.0254 60.9158M81.0254 60.9158C74.6753 60.75 68.9895 63.5482 68.9895 71.1816C68.9895 85.2369 95.4711 78.2092 95.4711 92.2646C95.4711 100.284 88.4221 103.728 81.0254 103.468M81.0254 60.9158V52.4434M66.5796 96.9508C69.685 100.977 75.4543 103.271 81.0254 103.468M81.0254 103.468V113.348" stroke="#BDD3E5" stroke-width="9.86875" stroke-linecap="round" stroke-linejoin="round"/>
</g>
<defs>
<clipPath id="clip0_277_2698">
<rect width="146.057" height="142.11" fill="white" transform="translate(11.9443 11.8438)"/>
</clipPath>
</defs>
</svg>
