<svg width="282" height="282" viewBox="0 0 282 282" fill="none" xmlns="http://www.w3.org/2000/svg">
<path fill-rule="evenodd" clip-rule="evenodd" d="M80.9446 49.611H52.2224C49.3382 49.611 47.0002 51.9491 47.0002 54.8332V83.5554C47.0002 87.8817 43.4931 91.3888 39.1668 91.3888C34.8406 91.3888 31.3335 87.8817 31.3335 83.5554V46.9999C31.3335 39.7895 37.1787 33.9443 44.3891 33.9443H80.9446C85.2708 33.9443 88.7779 37.4514 88.7779 41.7777C88.7779 46.1039 85.2708 49.611 80.9446 49.611ZM47.0002 203.667L47.0002 232.389C47.0002 235.273 49.3382 237.611 52.2224 237.611H80.9446C85.2708 237.611 88.7779 241.118 88.7779 245.444C88.7779 249.771 85.2708 253.278 80.9446 253.278H44.3891C37.1787 253.278 31.3335 247.432 31.3335 240.222L31.3335 203.667C31.3335 199.34 34.8406 195.833 39.1668 195.833C43.4931 195.833 47.0002 199.34 47.0002 203.667ZM229.778 237.611C232.662 237.611 235 235.273 235 232.389V203.667C235 199.34 238.507 195.833 242.833 195.833C247.16 195.833 250.667 199.34 250.667 203.667V240.222C250.667 247.432 244.822 253.278 237.611 253.278H201.056C196.729 253.278 193.222 249.771 193.222 245.444C193.222 241.118 196.729 237.611 201.056 237.611H229.778ZM201.056 49.611L229.778 49.611C232.662 49.611 235 51.9491 235 54.8332V83.5554C235 87.8817 238.507 91.3888 242.833 91.3888C247.16 91.3888 250.667 87.8817 250.667 83.5554V46.9999C250.667 39.7895 244.822 33.9443 237.611 33.9443L201.056 33.9443C196.729 33.9443 193.222 37.4514 193.222 41.7777C193.222 46.1039 196.729 49.611 201.056 49.611Z" fill="#BDD3E5"/>
<circle cx="141" cy="141" r="65.2778" stroke="#BDD3E5" stroke-width="15.6667"/>
<path d="M141 104.444V141L159.278 156.667" stroke="#BDD3E5" stroke-width="15.6667" stroke-linecap="round" stroke-linejoin="round"/>
</svg>
