<svg width="283" height="282" viewBox="0 0 283 282" fill="none" xmlns="http://www.w3.org/2000/svg">
<path d="M183.278 256.838C183.278 237.173 199.219 221.232 218.884 221.232H226.005C245.67 221.232 261.611 237.173 261.611 256.838C261.611 262.082 257.36 266.333 252.116 266.333H192.773C187.529 266.333 183.278 262.082 183.278 256.838Z" fill="#BDD3E5"/>
<ellipse cx="222.445" cy="189.662" rx="21.7593" ry="22.5505" fill="#BDD3E5"/>
<path d="M235.5 127.944V47C235.5 35.4634 226.148 26.1111 214.611 26.1111H68.3889C56.8523 26.1111 47.5 35.4634 47.5 47V235C47.5 246.537 56.8523 255.889 68.3889 255.889H144.111" stroke="#BDD3E5" stroke-width="15.6667" stroke-linecap="round"/>
<path d="M81.4443 83.5556L94.4999 99.2223L120.611 65.2778M138.889 86.1667H198.944" stroke="#BDD3E5" stroke-width="15.6667" stroke-linecap="round" stroke-linejoin="round"/>
<path d="M78.8335 143.611L91.889 159.278L118 125.333M136.278 146.222H196.333" stroke="#BDD3E5" stroke-width="15.6667" stroke-linecap="round" stroke-linejoin="round"/>
</svg>
