<svg width="570" height="698" viewBox="0 0 570 698" fill="none" xmlns="http://www.w3.org/2000/svg">
<g opacity="0.15">
<path d="M228.209 692.301C234.64 698.688 246.727 699.565 253.68 691.425L565.591 327.053C571.053 320.666 569.968 312.4 564.913 307.158H564.932L564.351 306.621C564.041 306.317 563.731 306.013 563.402 305.744L544.633 288.658C540.642 283.273 535.122 279.408 528.013 279.408H370.848V38.8256C370.848 34.6033 369.182 31.0788 366.586 28.4666L366.373 28.2698C366.141 28.0551 365.928 27.8404 365.695 27.6436L342.239 5.97741C339.023 2.64965 334.297 0.753174 329.493 0.753174C324.786 0.753174 320.041 2.57808 316.554 6.63938L4.60556 370.993C-1.18598 377.756 0.40233 386.612 6.23261 391.765H6.19387L29.5537 413.288C32.5173 416.491 36.9142 418.62 42.2021 418.62H199.368V659.221C199.348 663.532 201.111 667.111 203.881 669.812L228.209 692.301Z" fill="black"/>
<path d="M227.512 628.859L504.402 305.405H346.345H318.201V279.427V46.5548L41.3115 370.01H199.368H227.512V395.988V628.859Z" fill="#FF4B4B"/>
</g>
</svg>
