<svg width="569" height="450" viewBox="0 0 569 450" fill="none" xmlns="http://www.w3.org/2000/svg">
<g opacity="0.15">
<path d="M227.231 614.697C233.661 621.612 245.748 622.561 252.702 613.747L564.612 219.264C570.074 212.349 568.99 203.401 563.934 197.725H563.953L563.372 197.144C563.062 196.815 562.753 196.486 562.423 196.195L543.654 177.697C539.664 171.867 534.143 167.683 527.035 167.683H369.869V-92.7813C369.869 -97.3525 368.203 -101.168 365.608 -103.996L365.395 -104.209C365.162 -104.442 364.949 -104.674 364.717 -104.887L341.26 -128.344C338.045 -131.947 333.318 -134 328.515 -134C323.808 -134 319.062 -132.024 315.576 -127.627L3.62704 266.836C-2.16449 274.158 -0.576185 283.746 5.25409 289.324H5.21536L28.5752 312.626C31.5388 316.093 35.9357 318.398 41.2236 318.398H198.389V578.882C198.37 583.55 200.133 587.424 202.902 590.349L227.231 614.697Z" fill="black"/>
<path d="M226.534 546.012L503.424 195.827H345.367H317.223V167.702V-84.4134L40.333 265.771H198.39H226.534V293.896V546.012Z" fill="#FF4B4B"/>
</g>
</svg>
