<svg width="249" height="242" viewBox="0 0 249 242" fill="none" xmlns="http://www.w3.org/2000/svg">
<g clip-path="url(#clip0_350_504)">
<path d="M192.236 49.78L193.03 41.4247C190.807 41.2136 188.592 41.8965 186.875 43.3224C185.157 44.7483 184.078 46.7997 183.877 49.0229L192.236 49.78ZM218.286 94.9335L210.175 97.0932L210.179 97.1057L218.286 94.9335ZM144.883 31.8051C149.359 33.01 153.965 30.3584 155.17 25.8825C156.374 21.4066 153.723 16.8014 149.247 15.5964L144.883 31.8051ZM179.788 94.1765C179.369 98.7928 182.773 102.874 187.389 103.292C192.006 103.71 196.087 100.307 196.505 95.6905L179.788 94.1765ZM234.352 62.2122C238.967 62.6506 243.063 59.2652 243.502 54.6508C243.94 50.0363 240.555 45.9401 235.94 45.5017L234.352 62.2122ZM186.306 55.7199C197.772 67.165 206.007 81.4386 210.175 97.0932L226.396 92.7738C221.465 74.2585 211.726 57.3765 198.165 43.8401L186.306 55.7199ZM210.179 97.1057C223.376 146.358 194.149 196.979 144.898 210.176L149.242 226.39C207.448 210.793 241.989 150.968 226.392 92.7613L210.179 97.1057ZM144.898 210.176C95.6457 223.373 45.0244 194.147 31.8274 144.895L15.6136 149.239C31.21 207.446 91.0356 241.986 149.242 226.39L144.898 210.176ZM31.8274 144.895C18.6304 95.643 47.8566 45.0216 97.1085 31.8246L92.764 15.6109C34.5575 31.2072 0.0172374 91.0328 15.6136 149.239L31.8274 144.895ZM97.1085 31.8246C113.362 27.4696 129.754 27.7323 144.883 31.8051L149.247 15.5964C131.338 10.7754 111.941 10.4724 92.764 15.6109L97.1085 31.8246ZM183.877 49.0229L179.788 94.1765L196.505 95.6905L200.594 50.537L183.877 49.0229ZM191.442 58.1352L234.352 62.2122L235.94 45.5017L193.03 41.4247L191.442 58.1352Z" fill="#BDD3E5"/>
<path d="M142.215 93.1105C136.601 87.6489 126.723 83.8563 117.644 83.6145M117.644 83.6145C106.843 83.3325 97.1723 88.092 97.1723 101.076C97.1723 124.982 142.215 113.029 142.215 136.936C142.215 150.575 130.225 156.434 117.644 155.991M117.644 83.6145V69.2038M93.0732 144.906C98.3553 151.755 108.168 155.657 117.644 155.991M117.644 155.991V172.796" stroke="#BDD3E5" stroke-width="16.7857" stroke-linecap="round" stroke-linejoin="round"/>
</g>
<defs>
<clipPath id="clip0_350_504">
<rect width="248.429" height="241.714" fill="white" transform="translate(0.144531 0.142883)"/>
</clipPath>
</defs>
</svg>
