<svg width="283" height="282" viewBox="0 0 283 282" fill="none" xmlns="http://www.w3.org/2000/svg">
<path d="M18.6914 181.457C18.6914 161.625 34.7681 145.548 54.5997 145.548H64.6541C84.4857 145.548 100.562 161.625 100.562 181.457C100.562 186.745 96.2753 191.032 90.9868 191.032H28.2669C22.9785 191.032 18.6914 186.745 18.6914 181.457Z" fill="#BDD3E5"/>
<ellipse cx="59.6238" cy="113.71" rx="22.7419" ry="22.7419" fill="#BDD3E5"/>
<path d="M100.563 226.94C100.563 207.109 116.64 191.032 136.472 191.032H146.526C166.358 191.032 182.434 207.109 182.434 226.94C182.434 232.229 178.147 236.516 172.859 236.516H110.139C104.851 236.516 100.563 232.229 100.563 226.94Z" fill="#BDD3E5"/>
<ellipse cx="141.497" cy="159.193" rx="22.7419" ry="22.7419" fill="#BDD3E5"/>
<path d="M182.437 181.457C182.437 161.625 198.513 145.548 218.345 145.548H228.399C248.231 145.548 264.308 161.625 264.308 181.457C264.308 186.745 260.02 191.032 254.732 191.032H192.012C186.724 191.032 182.437 186.745 182.437 181.457Z" fill="#BDD3E5"/>
<ellipse cx="223.369" cy="113.71" rx="22.7419" ry="22.7419" fill="#BDD3E5"/>
<ellipse cx="141.497" cy="86.4193" rx="22.7419" ry="22.7419" fill="#BDD3E5"/>
</svg>
