<svg width="283" height="285" viewBox="0 0 283 285" fill="none" xmlns="http://www.w3.org/2000/svg">
<path d="M220.832 175.751C224.945 165.763 227.177 155.071 227.177 143.321C227.177 134.861 225.885 126.753 223.652 119.233C216.015 120.996 208.025 121.936 199.682 121.936C182.597 121.954 165.758 117.865 150.585 110.012C135.412 102.16 122.349 90.7742 112.497 76.8157C101.958 102.315 82.0778 122.826 56.9196 134.156C56.4496 137.093 56.4496 140.266 56.4496 143.321C56.4496 154.539 58.6591 165.647 62.952 176.01C67.2448 186.374 73.537 195.791 81.4692 203.724C97.4891 219.743 119.217 228.743 141.872 228.743C154.21 228.743 166.077 226.041 176.77 221.223C183.467 234.031 186.522 240.376 186.287 240.376C167.017 246.838 152.095 250.011 141.872 250.011C113.437 250.011 86.2946 238.848 66.3196 218.756C54.17 206.644 45.1387 191.766 39.9996 175.398H24.3721V121.936H37.1796C41.0599 103.048 49.9811 85.5625 62.9965 71.3354C76.012 57.1083 92.6361 46.67 111.105 41.1281C129.574 35.5863 149.199 35.1475 167.897 39.8585C186.595 44.5695 203.669 54.2545 217.307 67.8857C232.115 82.6349 242.215 101.445 246.33 121.936H259.372V175.398H258.667L216.837 213.821L154.562 206.771V187.148H211.315L220.832 175.751ZM109.795 140.618C113.32 140.618 116.727 142.028 119.195 144.613C121.674 147.113 123.066 150.492 123.066 154.013C123.066 157.535 121.674 160.913 119.195 163.413C116.727 165.881 113.32 167.291 109.795 167.291C102.392 167.291 96.3996 161.416 96.3996 154.013C96.3996 146.611 102.392 140.618 109.795 140.618ZM173.832 140.618C181.235 140.618 187.11 146.611 187.11 154.013C187.11 161.416 181.235 167.291 173.832 167.291C166.43 167.291 160.437 161.416 160.437 154.013C160.437 150.461 161.848 147.054 164.36 144.542C166.872 142.029 170.279 140.618 173.832 140.618Z" fill="#BDD3E5"/>
</svg>
