<svg width="54" height="54" viewBox="0 0 54 54" fill="none" xmlns="http://www.w3.org/2000/svg">
<g clip-path="url(#clip0_78_442)">
<path d="M40.6403 13.3622L40.7923 11.7623C40.3667 11.7218 39.9426 11.8526 39.6137 12.1257C39.2848 12.3987 39.0782 12.7915 39.0397 13.2172L40.6403 13.3622ZM45.6285 22.0086L44.0755 22.4222L44.0761 22.4246L45.6285 22.0086ZM31.5728 9.92022C32.4299 10.1509 33.3117 9.64319 33.5425 8.7861C33.7732 7.92901 33.2654 7.04716 32.4084 6.81643L31.5728 9.92022ZM38.2566 21.8637C38.1765 22.7477 38.8282 23.5292 39.7122 23.6092C40.5962 23.6893 41.3777 23.0376 41.4577 22.1536L38.2566 21.8637ZM48.7052 15.7429C49.5888 15.8268 50.3731 15.1785 50.4571 14.2949C50.5411 13.4113 49.8928 12.6269 49.0092 12.543L48.7052 15.7429ZM39.5048 14.4996C41.7004 16.6913 43.2772 19.4245 44.0755 22.4222L47.1815 21.5951C46.2374 18.0496 44.3724 14.8169 41.7757 12.2248L39.5048 14.4996ZM44.0761 22.4246C46.6032 31.8558 41.0067 41.5493 31.5755 44.0763L32.4074 47.1811C43.5533 44.1946 50.1674 32.7386 47.1809 21.5927L44.0761 22.4246ZM31.5755 44.0763C22.1443 46.6034 12.4508 41.0069 9.92375 31.5757L6.81899 32.4076C9.80553 43.5535 21.2615 50.1676 32.4074 47.1811L31.5755 44.0763ZM9.92375 31.5757C7.39667 22.1445 12.9932 12.451 22.4244 9.92395L21.5925 6.81919C10.4465 9.80573 3.83245 21.2617 6.81899 32.4076L9.92375 31.5757ZM22.4244 9.92395C25.5367 9.09002 28.6757 9.14031 31.5728 9.92022L32.4084 6.81643C28.9791 5.89325 25.2647 5.83522 21.5925 6.81919L22.4244 9.92395ZM39.0397 13.2172L38.2566 21.8637L41.4577 22.1536L42.2408 13.5072L39.0397 13.2172ZM40.4882 14.9622L48.7052 15.7429L49.0092 12.543L40.7923 11.7623L40.4882 14.9622Z" fill="black"/>
<path d="M31.0622 21.6595C29.9873 20.6137 28.0958 19.8875 26.3571 19.8412M26.3571 19.8412C24.2889 19.7872 22.437 20.6986 22.437 23.1848C22.437 27.7626 31.0622 25.4737 31.0622 30.0516C31.0622 32.6634 28.7663 33.7853 26.3571 33.7004M26.3571 19.8412V17.0817M21.6521 31.5779C22.6636 32.8893 24.5426 33.6365 26.3571 33.7004M26.3571 33.7004V36.9184" stroke="black" stroke-width="3.21429" stroke-linecap="round" stroke-linejoin="round"/>
</g>
<defs>
<clipPath id="clip0_78_442">
<rect width="47.5714" height="46.2857" fill="white" transform="translate(3.85706 3.85718)"/>
</clipPath>
</defs>
</svg>
