<svg width="55" height="54" viewBox="0 0 55 54" fill="none" xmlns="http://www.w3.org/2000/svg">
<path d="M35.5 49.1818C35.5 45.4163 38.5526 42.3636 42.3182 42.3636H43.6818C47.4474 42.3636 50.5 45.4163 50.5 49.1818C50.5 50.186 49.686 51 48.6818 51H37.3182C36.314 51 35.5 50.186 35.5 49.1818Z" fill="black"/>
<ellipse cx="43.0002" cy="36.3182" rx="4.16667" ry="4.31818" fill="black"/>
<path d="M45.5 24.5V9C45.5 6.79086 43.7091 5 41.5 5H13.5C11.2909 5 9.5 6.79086 9.5 9V45C9.5 47.2091 11.2909 49 13.5 49H28" stroke="black" stroke-width="3" stroke-linecap="round"/>
<path d="M16 16L18.5 19L23.5 12.5M27 16.5H38.5" stroke="black" stroke-width="3" stroke-linecap="round" stroke-linejoin="round"/>
<path d="M15.5 27.5L18 30.5L23 24M26.5 28H38" stroke="black" stroke-width="3" stroke-linecap="round" stroke-linejoin="round"/>
</svg>
